<mxfile host="app.diagrams.net" modified="2023-06-29T14:17:00.389Z" agent="Mozilla/5.0 (Macintosh; Intel Mac OS X 10_15_7) AppleWebKit/537.36 (KHTML, like Gecko) Chrome/114.0.0.0 Safari/537.36" etag="A_IkNd0N-IktHQ8zIjDv" version="21.5.1" type="device">
  <diagram name="Page-1" id="BJ5K2fjWopcaT2B7FVkm">
    <mxGraphModel dx="3211" dy="1614" grid="1" gridSize="10" guides="1" tooltips="1" connect="1" arrows="1" fold="1" page="0" pageScale="1" pageWidth="850" pageHeight="1100" math="0" shadow="0">
      <root>
        <mxCell id="0" />
        <mxCell id="1" parent="0" />
        <mxCell id="e3LWVqIvxiCDCLGhCGVd-2" value="Department" style="whiteSpace=wrap;html=1;align=center;" vertex="1" parent="1">
          <mxGeometry x="120" y="250" width="100" height="40" as="geometry" />
        </mxCell>
        <mxCell id="e3LWVqIvxiCDCLGhCGVd-3" value="Department&lt;br&gt;Number" style="ellipse;whiteSpace=wrap;html=1;align=center;fontStyle=4;" vertex="1" parent="1">
          <mxGeometry x="-40" y="160" width="120" height="50" as="geometry" />
        </mxCell>
        <mxCell id="e3LWVqIvxiCDCLGhCGVd-4" value="Name" style="ellipse;whiteSpace=wrap;html=1;align=center;" vertex="1" parent="1">
          <mxGeometry x="120" y="140" width="100" height="40" as="geometry" />
        </mxCell>
        <mxCell id="e3LWVqIvxiCDCLGhCGVd-5" value="" style="endArrow=none;html=1;rounded=0;exitX=0.5;exitY=1;exitDx=0;exitDy=0;entryX=0.5;entryY=0;entryDx=0;entryDy=0;" edge="1" parent="1" source="e3LWVqIvxiCDCLGhCGVd-4" target="e3LWVqIvxiCDCLGhCGVd-2">
          <mxGeometry relative="1" as="geometry">
            <mxPoint x="190" y="300" as="sourcePoint" />
            <mxPoint x="350" y="300" as="targetPoint" />
          </mxGeometry>
        </mxCell>
        <mxCell id="e3LWVqIvxiCDCLGhCGVd-6" value="" style="endArrow=none;html=1;rounded=0;exitX=1;exitY=1;exitDx=0;exitDy=0;entryX=0;entryY=0;entryDx=0;entryDy=0;" edge="1" parent="1" source="e3LWVqIvxiCDCLGhCGVd-3" target="e3LWVqIvxiCDCLGhCGVd-2">
          <mxGeometry relative="1" as="geometry">
            <mxPoint x="190" y="300" as="sourcePoint" />
            <mxPoint x="350" y="300" as="targetPoint" />
          </mxGeometry>
        </mxCell>
        <mxCell id="e3LWVqIvxiCDCLGhCGVd-7" value="Control" style="shape=rhombus;perimeter=rhombusPerimeter;whiteSpace=wrap;html=1;align=center;" vertex="1" parent="1">
          <mxGeometry x="440" y="240" width="120" height="60" as="geometry" />
        </mxCell>
        <mxCell id="e3LWVqIvxiCDCLGhCGVd-8" value="Project" style="whiteSpace=wrap;html=1;align=center;" vertex="1" parent="1">
          <mxGeometry x="770" y="250" width="100" height="40" as="geometry" />
        </mxCell>
        <mxCell id="e3LWVqIvxiCDCLGhCGVd-9" value="" style="endArrow=none;html=1;rounded=0;exitX=1;exitY=0.5;exitDx=0;exitDy=0;entryX=0;entryY=0.5;entryDx=0;entryDy=0;" edge="1" parent="1" source="e3LWVqIvxiCDCLGhCGVd-7" target="e3LWVqIvxiCDCLGhCGVd-8">
          <mxGeometry relative="1" as="geometry">
            <mxPoint x="500" y="300" as="sourcePoint" />
            <mxPoint x="660" y="300" as="targetPoint" />
          </mxGeometry>
        </mxCell>
        <mxCell id="e3LWVqIvxiCDCLGhCGVd-10" value="" style="endArrow=none;html=1;rounded=0;exitX=1;exitY=0.5;exitDx=0;exitDy=0;entryX=0;entryY=0.5;entryDx=0;entryDy=0;" edge="1" parent="1" source="e3LWVqIvxiCDCLGhCGVd-2" target="e3LWVqIvxiCDCLGhCGVd-7">
          <mxGeometry relative="1" as="geometry">
            <mxPoint x="500" y="300" as="sourcePoint" />
            <mxPoint x="660" y="300" as="targetPoint" />
          </mxGeometry>
        </mxCell>
        <mxCell id="e3LWVqIvxiCDCLGhCGVd-11" value="Project&amp;nbsp;&lt;br&gt;Number" style="ellipse;whiteSpace=wrap;html=1;align=center;fontStyle=4;" vertex="1" parent="1">
          <mxGeometry x="650" y="140" width="100" height="40" as="geometry" />
        </mxCell>
        <mxCell id="e3LWVqIvxiCDCLGhCGVd-13" value="Name" style="ellipse;whiteSpace=wrap;html=1;align=center;" vertex="1" parent="1">
          <mxGeometry x="800" y="100" width="100" height="40" as="geometry" />
        </mxCell>
        <mxCell id="e3LWVqIvxiCDCLGhCGVd-14" value="Location" style="ellipse;whiteSpace=wrap;html=1;align=center;" vertex="1" parent="1">
          <mxGeometry x="950" y="160" width="100" height="40" as="geometry" />
        </mxCell>
        <mxCell id="e3LWVqIvxiCDCLGhCGVd-15" value="" style="endArrow=none;html=1;rounded=0;exitX=0;exitY=1;exitDx=0;exitDy=0;entryX=1;entryY=0;entryDx=0;entryDy=0;" edge="1" parent="1" source="e3LWVqIvxiCDCLGhCGVd-14" target="e3LWVqIvxiCDCLGhCGVd-8">
          <mxGeometry relative="1" as="geometry">
            <mxPoint x="500" y="300" as="sourcePoint" />
            <mxPoint x="660" y="300" as="targetPoint" />
          </mxGeometry>
        </mxCell>
        <mxCell id="e3LWVqIvxiCDCLGhCGVd-16" value="" style="endArrow=none;html=1;rounded=0;exitX=0.5;exitY=1;exitDx=0;exitDy=0;entryX=0.75;entryY=0;entryDx=0;entryDy=0;" edge="1" parent="1" source="e3LWVqIvxiCDCLGhCGVd-13" target="e3LWVqIvxiCDCLGhCGVd-8">
          <mxGeometry relative="1" as="geometry">
            <mxPoint x="500" y="300" as="sourcePoint" />
            <mxPoint x="660" y="300" as="targetPoint" />
          </mxGeometry>
        </mxCell>
        <mxCell id="e3LWVqIvxiCDCLGhCGVd-17" value="" style="endArrow=none;html=1;rounded=0;exitX=0.738;exitY=0.991;exitDx=0;exitDy=0;exitPerimeter=0;entryX=0;entryY=0;entryDx=0;entryDy=0;" edge="1" parent="1" source="e3LWVqIvxiCDCLGhCGVd-11" target="e3LWVqIvxiCDCLGhCGVd-8">
          <mxGeometry relative="1" as="geometry">
            <mxPoint x="500" y="300" as="sourcePoint" />
            <mxPoint x="660" y="300" as="targetPoint" />
          </mxGeometry>
        </mxCell>
        <mxCell id="e3LWVqIvxiCDCLGhCGVd-18" value="Manegers" style="shape=rhombus;perimeter=rhombusPerimeter;whiteSpace=wrap;html=1;align=center;" vertex="1" parent="1">
          <mxGeometry x="110" y="420" width="120" height="60" as="geometry" />
        </mxCell>
        <mxCell id="e3LWVqIvxiCDCLGhCGVd-19" value="Employee" style="whiteSpace=wrap;html=1;align=center;" vertex="1" parent="1">
          <mxGeometry x="120" y="690" width="100" height="40" as="geometry" />
        </mxCell>
        <mxCell id="e3LWVqIvxiCDCLGhCGVd-20" value="" style="endArrow=none;html=1;rounded=0;exitX=0.5;exitY=1;exitDx=0;exitDy=0;entryX=0.5;entryY=0;entryDx=0;entryDy=0;" edge="1" parent="1" source="e3LWVqIvxiCDCLGhCGVd-18" target="e3LWVqIvxiCDCLGhCGVd-19">
          <mxGeometry relative="1" as="geometry">
            <mxPoint x="310" y="550" as="sourcePoint" />
            <mxPoint x="470" y="550" as="targetPoint" />
          </mxGeometry>
        </mxCell>
        <mxCell id="e3LWVqIvxiCDCLGhCGVd-21" value="" style="endArrow=none;html=1;rounded=0;exitX=0.5;exitY=1;exitDx=0;exitDy=0;entryX=0.5;entryY=0;entryDx=0;entryDy=0;" edge="1" parent="1" source="e3LWVqIvxiCDCLGhCGVd-2" target="e3LWVqIvxiCDCLGhCGVd-18">
          <mxGeometry relative="1" as="geometry">
            <mxPoint x="310" y="550" as="sourcePoint" />
            <mxPoint x="470" y="550" as="targetPoint" />
          </mxGeometry>
        </mxCell>
        <mxCell id="e3LWVqIvxiCDCLGhCGVd-22" value="Start&amp;nbsp;&lt;br&gt;Date" style="ellipse;whiteSpace=wrap;html=1;align=center;" vertex="1" parent="1">
          <mxGeometry x="-120" y="430" width="100" height="40" as="geometry" />
        </mxCell>
        <mxCell id="e3LWVqIvxiCDCLGhCGVd-23" value="" style="endArrow=none;html=1;rounded=0;exitX=1;exitY=0.5;exitDx=0;exitDy=0;entryX=0;entryY=0.5;entryDx=0;entryDy=0;" edge="1" parent="1" source="e3LWVqIvxiCDCLGhCGVd-22" target="e3LWVqIvxiCDCLGhCGVd-18">
          <mxGeometry relative="1" as="geometry">
            <mxPoint x="310" y="630" as="sourcePoint" />
            <mxPoint x="470" y="630" as="targetPoint" />
          </mxGeometry>
        </mxCell>
        <mxCell id="e3LWVqIvxiCDCLGhCGVd-24" value="Social&lt;br&gt;Security Number&lt;br&gt;" style="ellipse;whiteSpace=wrap;html=1;align=center;fontStyle=4;" vertex="1" parent="1">
          <mxGeometry x="310" y="780" width="120" height="50" as="geometry" />
        </mxCell>
        <mxCell id="e3LWVqIvxiCDCLGhCGVd-25" value="Address" style="ellipse;whiteSpace=wrap;html=1;align=center;" vertex="1" parent="1">
          <mxGeometry x="200" y="840" width="100" height="40" as="geometry" />
        </mxCell>
        <mxCell id="e3LWVqIvxiCDCLGhCGVd-26" value="Sex" style="ellipse;whiteSpace=wrap;html=1;align=center;" vertex="1" parent="1">
          <mxGeometry x="200" y="570" width="100" height="40" as="geometry" />
        </mxCell>
        <mxCell id="e3LWVqIvxiCDCLGhCGVd-28" value="Salary" style="ellipse;whiteSpace=wrap;html=1;align=center;" vertex="1" parent="1">
          <mxGeometry x="-20" y="690" width="100" height="40" as="geometry" />
        </mxCell>
        <mxCell id="e3LWVqIvxiCDCLGhCGVd-29" value="Has" style="shape=rhombus;double=1;perimeter=rhombusPerimeter;whiteSpace=wrap;html=1;align=center;" vertex="1" parent="1">
          <mxGeometry x="110" y="970" width="120" height="60" as="geometry" />
        </mxCell>
        <mxCell id="e3LWVqIvxiCDCLGhCGVd-30" value="" style="endArrow=none;html=1;rounded=0;exitX=0.5;exitY=1;exitDx=0;exitDy=0;entryX=0.5;entryY=0;entryDx=0;entryDy=0;" edge="1" parent="1" source="e3LWVqIvxiCDCLGhCGVd-19" target="e3LWVqIvxiCDCLGhCGVd-29">
          <mxGeometry relative="1" as="geometry">
            <mxPoint x="310" y="860" as="sourcePoint" />
            <mxPoint x="470" y="860" as="targetPoint" />
          </mxGeometry>
        </mxCell>
        <mxCell id="e3LWVqIvxiCDCLGhCGVd-31" value="Work" style="shape=rhombus;perimeter=rhombusPerimeter;whiteSpace=wrap;html=1;align=center;" vertex="1" parent="1">
          <mxGeometry x="560" y="680" width="120" height="60" as="geometry" />
        </mxCell>
        <mxCell id="e3LWVqIvxiCDCLGhCGVd-32" value="" style="endArrow=none;html=1;rounded=0;exitX=1;exitY=0.5;exitDx=0;exitDy=0;entryX=0;entryY=0.5;entryDx=0;entryDy=0;" edge="1" parent="1" source="e3LWVqIvxiCDCLGhCGVd-19" target="e3LWVqIvxiCDCLGhCGVd-31">
          <mxGeometry relative="1" as="geometry">
            <mxPoint x="310" y="860" as="sourcePoint" />
            <mxPoint x="470" y="860" as="targetPoint" />
          </mxGeometry>
        </mxCell>
        <mxCell id="e3LWVqIvxiCDCLGhCGVd-33" value="" style="endArrow=none;html=1;rounded=0;exitX=1;exitY=0;exitDx=0;exitDy=0;entryX=0;entryY=0;entryDx=0;entryDy=0;" edge="1" parent="1" source="e3LWVqIvxiCDCLGhCGVd-19" target="e3LWVqIvxiCDCLGhCGVd-39">
          <mxGeometry relative="1" as="geometry">
            <mxPoint x="310" y="860" as="sourcePoint" />
            <mxPoint x="470" y="860" as="targetPoint" />
          </mxGeometry>
        </mxCell>
        <mxCell id="e3LWVqIvxiCDCLGhCGVd-34" value="" style="endArrow=none;html=1;rounded=0;exitX=0.672;exitY=-0.059;exitDx=0;exitDy=0;entryX=0;entryY=1;entryDx=0;entryDy=0;exitPerimeter=0;" edge="1" parent="1" source="e3LWVqIvxiCDCLGhCGVd-19" target="e3LWVqIvxiCDCLGhCGVd-26">
          <mxGeometry relative="1" as="geometry">
            <mxPoint x="310" y="860" as="sourcePoint" />
            <mxPoint x="470" y="860" as="targetPoint" />
          </mxGeometry>
        </mxCell>
        <mxCell id="e3LWVqIvxiCDCLGhCGVd-35" value="" style="endArrow=none;html=1;rounded=0;exitX=1;exitY=1;exitDx=0;exitDy=0;entryX=0.038;entryY=0.363;entryDx=0;entryDy=0;entryPerimeter=0;" edge="1" parent="1" source="e3LWVqIvxiCDCLGhCGVd-19" target="e3LWVqIvxiCDCLGhCGVd-24">
          <mxGeometry relative="1" as="geometry">
            <mxPoint x="310" y="860" as="sourcePoint" />
            <mxPoint x="470" y="860" as="targetPoint" />
          </mxGeometry>
        </mxCell>
        <mxCell id="e3LWVqIvxiCDCLGhCGVd-36" value="" style="endArrow=none;html=1;rounded=0;exitX=0.75;exitY=1;exitDx=0;exitDy=0;entryX=0.263;entryY=0.022;entryDx=0;entryDy=0;entryPerimeter=0;" edge="1" parent="1" source="e3LWVqIvxiCDCLGhCGVd-19" target="e3LWVqIvxiCDCLGhCGVd-25">
          <mxGeometry relative="1" as="geometry">
            <mxPoint x="310" y="860" as="sourcePoint" />
            <mxPoint x="470" y="860" as="targetPoint" />
          </mxGeometry>
        </mxCell>
        <mxCell id="e3LWVqIvxiCDCLGhCGVd-37" value="" style="endArrow=none;html=1;rounded=0;exitX=1;exitY=0.5;exitDx=0;exitDy=0;entryX=0;entryY=0.5;entryDx=0;entryDy=0;" edge="1" parent="1" source="e3LWVqIvxiCDCLGhCGVd-28" target="e3LWVqIvxiCDCLGhCGVd-19">
          <mxGeometry relative="1" as="geometry">
            <mxPoint x="310" y="860" as="sourcePoint" />
            <mxPoint x="470" y="860" as="targetPoint" />
          </mxGeometry>
        </mxCell>
        <mxCell id="e3LWVqIvxiCDCLGhCGVd-39" value="Birthday" style="ellipse;whiteSpace=wrap;html=1;align=center;" vertex="1" parent="1">
          <mxGeometry x="310" y="600" width="100" height="40" as="geometry" />
        </mxCell>
        <mxCell id="e3LWVqIvxiCDCLGhCGVd-41" value="Superviser" style="shape=rhombus;perimeter=rhombusPerimeter;whiteSpace=wrap;html=1;align=center;" vertex="1" parent="1">
          <mxGeometry x="-190" y="685" width="110" height="50" as="geometry" />
        </mxCell>
        <mxCell id="e3LWVqIvxiCDCLGhCGVd-42" value="" style="endArrow=none;html=1;rounded=0;entryX=0.172;entryY=0.998;entryDx=0;entryDy=0;entryPerimeter=0;exitX=0.5;exitY=1;exitDx=0;exitDy=0;" edge="1" parent="1" source="e3LWVqIvxiCDCLGhCGVd-41" target="e3LWVqIvxiCDCLGhCGVd-19">
          <mxGeometry relative="1" as="geometry">
            <mxPoint x="-90" y="810" as="sourcePoint" />
            <mxPoint x="120" y="820" as="targetPoint" />
            <Array as="points">
              <mxPoint x="-90" y="810" />
              <mxPoint x="100" y="810" />
            </Array>
          </mxGeometry>
        </mxCell>
        <mxCell id="e3LWVqIvxiCDCLGhCGVd-45" value="" style="endArrow=none;html=1;rounded=0;entryX=0.2;entryY=0;entryDx=0;entryDy=0;entryPerimeter=0;exitX=0.5;exitY=0;exitDx=0;exitDy=0;" edge="1" parent="1" source="e3LWVqIvxiCDCLGhCGVd-41" target="e3LWVqIvxiCDCLGhCGVd-19">
          <mxGeometry relative="1" as="geometry">
            <mxPoint x="-90" y="589.23" as="sourcePoint" />
            <mxPoint x="70" y="589.23" as="targetPoint" />
            <Array as="points">
              <mxPoint x="-90" y="610" />
              <mxPoint x="90" y="610" />
            </Array>
          </mxGeometry>
        </mxCell>
        <mxCell id="e3LWVqIvxiCDCLGhCGVd-46" value="" style="endArrow=none;html=1;rounded=0;exitX=0.5;exitY=1;exitDx=0;exitDy=0;entryX=1;entryY=0.5;entryDx=0;entryDy=0;" edge="1" parent="1" source="e3LWVqIvxiCDCLGhCGVd-8" target="e3LWVqIvxiCDCLGhCGVd-31">
          <mxGeometry relative="1" as="geometry">
            <mxPoint x="750" y="580" as="sourcePoint" />
            <mxPoint x="910" y="580" as="targetPoint" />
            <Array as="points">
              <mxPoint x="820" y="710" />
            </Array>
          </mxGeometry>
        </mxCell>
        <mxCell id="e3LWVqIvxiCDCLGhCGVd-48" value="Number of&amp;nbsp;&lt;br&gt;hours" style="ellipse;whiteSpace=wrap;html=1;align=center;" vertex="1" parent="1">
          <mxGeometry x="570" y="570" width="100" height="40" as="geometry" />
        </mxCell>
        <mxCell id="e3LWVqIvxiCDCLGhCGVd-49" value="" style="endArrow=none;html=1;rounded=0;exitX=0.5;exitY=1;exitDx=0;exitDy=0;entryX=0.5;entryY=0;entryDx=0;entryDy=0;" edge="1" parent="1" source="e3LWVqIvxiCDCLGhCGVd-48" target="e3LWVqIvxiCDCLGhCGVd-31">
          <mxGeometry relative="1" as="geometry">
            <mxPoint x="750" y="580" as="sourcePoint" />
            <mxPoint x="910" y="580" as="targetPoint" />
          </mxGeometry>
        </mxCell>
        <mxCell id="e3LWVqIvxiCDCLGhCGVd-50" value="Entity" style="shape=ext;margin=3;double=1;whiteSpace=wrap;html=1;align=center;" vertex="1" parent="1">
          <mxGeometry x="120" y="1210" width="100" height="40" as="geometry" />
        </mxCell>
        <mxCell id="e3LWVqIvxiCDCLGhCGVd-51" value="" style="endArrow=none;html=1;rounded=0;exitX=0.5;exitY=1;exitDx=0;exitDy=0;entryX=0.5;entryY=0;entryDx=0;entryDy=0;" edge="1" parent="1" source="e3LWVqIvxiCDCLGhCGVd-29" target="e3LWVqIvxiCDCLGhCGVd-50">
          <mxGeometry relative="1" as="geometry">
            <mxPoint x="260" y="1090" as="sourcePoint" />
            <mxPoint x="420" y="1090" as="targetPoint" />
          </mxGeometry>
        </mxCell>
        <mxCell id="e3LWVqIvxiCDCLGhCGVd-52" value="Birthday" style="ellipse;whiteSpace=wrap;html=1;align=center;" vertex="1" parent="1">
          <mxGeometry x="210" y="1320" width="100" height="40" as="geometry" />
        </mxCell>
        <mxCell id="e3LWVqIvxiCDCLGhCGVd-53" value="Name" style="ellipse;whiteSpace=wrap;html=1;align=center;" vertex="1" parent="1">
          <mxGeometry x="20" y="1320" width="100" height="40" as="geometry" />
        </mxCell>
        <mxCell id="e3LWVqIvxiCDCLGhCGVd-54" value="Sex" style="ellipse;whiteSpace=wrap;html=1;align=center;" vertex="1" parent="1">
          <mxGeometry x="280" y="1210" width="100" height="40" as="geometry" />
        </mxCell>
        <mxCell id="e3LWVqIvxiCDCLGhCGVd-55" value="Relationship" style="ellipse;whiteSpace=wrap;html=1;align=center;" vertex="1" parent="1">
          <mxGeometry x="-50" y="1210" width="100" height="40" as="geometry" />
        </mxCell>
        <mxCell id="e3LWVqIvxiCDCLGhCGVd-56" value="" style="endArrow=none;html=1;rounded=0;exitX=1;exitY=0.5;exitDx=0;exitDy=0;entryX=0;entryY=0.5;entryDx=0;entryDy=0;" edge="1" parent="1" source="e3LWVqIvxiCDCLGhCGVd-50" target="e3LWVqIvxiCDCLGhCGVd-54">
          <mxGeometry relative="1" as="geometry">
            <mxPoint x="210" y="1270" as="sourcePoint" />
            <mxPoint x="350" y="1260" as="targetPoint" />
          </mxGeometry>
        </mxCell>
        <mxCell id="e3LWVqIvxiCDCLGhCGVd-57" value="" style="endArrow=none;html=1;rounded=0;exitX=0.091;exitY=0.139;exitDx=0;exitDy=0;exitPerimeter=0;entryX=0.75;entryY=1;entryDx=0;entryDy=0;" edge="1" parent="1" source="e3LWVqIvxiCDCLGhCGVd-52" target="e3LWVqIvxiCDCLGhCGVd-50">
          <mxGeometry relative="1" as="geometry">
            <mxPoint x="210" y="1270" as="sourcePoint" />
            <mxPoint x="370" y="1270" as="targetPoint" />
          </mxGeometry>
        </mxCell>
        <mxCell id="e3LWVqIvxiCDCLGhCGVd-58" value="" style="endArrow=none;html=1;rounded=0;exitX=0.791;exitY=0.093;exitDx=0;exitDy=0;exitPerimeter=0;entryX=0.144;entryY=0.984;entryDx=0;entryDy=0;entryPerimeter=0;" edge="1" parent="1" source="e3LWVqIvxiCDCLGhCGVd-53" target="e3LWVqIvxiCDCLGhCGVd-50">
          <mxGeometry relative="1" as="geometry">
            <mxPoint x="210" y="1270" as="sourcePoint" />
            <mxPoint x="370" y="1270" as="targetPoint" />
          </mxGeometry>
        </mxCell>
        <mxCell id="e3LWVqIvxiCDCLGhCGVd-59" value="" style="endArrow=none;html=1;rounded=0;exitX=1;exitY=0.5;exitDx=0;exitDy=0;entryX=0;entryY=0.5;entryDx=0;entryDy=0;" edge="1" parent="1" source="e3LWVqIvxiCDCLGhCGVd-55" target="e3LWVqIvxiCDCLGhCGVd-50">
          <mxGeometry relative="1" as="geometry">
            <mxPoint x="210" y="1270" as="sourcePoint" />
            <mxPoint x="370" y="1270" as="targetPoint" />
          </mxGeometry>
        </mxCell>
      </root>
    </mxGraphModel>
  </diagram>
</mxfile>
